# Blender v2.78 (sub 0) OBJ File: 'dividedShipPart.blend'
# www.blender.org
o shipPart2_sci_fi_space_cargo_container_3.003
v -39.914406 -47.904305 45.161549
v -49.777992 -38.040722 45.161552
v -39.914387 -38.040722 55.025120
v -28.452618 -55.515121 27.995121
v -6.376110 -21.531673 65.552383
v -28.127232 -47.081596 38.588455
v -23.238523 -55.515121 33.277214
v -33.341328 -47.081593 33.306362
v -49.019146 -31.467636 33.302830
v -58.907131 -26.733549 27.991606
v -49.019146 -26.273752 38.588470
v -58.907127 -21.539667 33.277245
v -6.039210 -31.467640 53.710197
v -1.150487 -26.733557 65.552376
v -11.264831 -26.265757 53.710201
v -64.009102 -11.089684 22.379463
v -57.928410 -12.669724 23.230240
v -5.376794 -59.180481 24.370104
v -5.376796 -59.180481 18.448702
v -5.376794 -54.559887 25.480862
v -5.376792 -54.559887 17.337942
v -5.376799 -59.180481 12.804820
v -5.376801 -59.180477 6.883419
v -5.376799 -54.559887 13.915582
v -5.376796 -54.559883 5.772660
v -31.339375 -22.208122 54.385319
v -25.247452 -19.562853 62.716293
v -9.719435 -22.208122 54.385315
v -6.981793 -19.562853 62.716282
v -49.778023 -38.040714 2.807390
v -0.679214 -55.515118 3.047223
v -44.844921 -42.973816 2.790444
v -0.033325 -47.904297 3.151638
v -57.928421 -12.669721 3.057772
v -39.914444 -47.904297 2.773521
v -49.019173 -31.467630 2.899474
v -33.341358 -47.081589 2.846466
v -58.907154 -0.016135 3.211910
v -54.452450 -28.866333 2.881551
v -59.627502 -12.228222 3.047363
v -64.009117 -5.075622 3.098197
v -64.009117 -11.089681 3.020526
v -58.907154 -26.733545 2.866861
v -28.452642 -55.515118 2.783900
v -30.667000 -51.695126 2.812238
v 1.151655 -31.467640 53.710186
v 1.419489 -56.282146 17.751961
v 1.252316 -47.081596 38.588425
v 1.127480 -30.277391 56.687561
v 1.427215 -54.559887 17.337942
v 1.555501 -47.904297 4.854948
v 1.055502 -26.733557 65.552368
v 1.386621 -59.180481 20.645144
v 1.490911 -59.180477 9.113731
v 1.353571 -54.559887 25.480862
v 1.267033 -51.431114 35.849201
v 1.511083 -59.180477 6.883418
v 1.328623 -55.515121 27.995090
v 1.300714 -55.515121 31.080915
v 1.067526 -21.531673 65.552376
v 1.523968 -56.308620 6.193043
v 1.124565 -38.040722 55.025089
v 1.406487 -59.180481 18.448700
v 1.056419 -26.335518 65.552376
v 1.458168 -54.559887 13.915581
v 1.353168 -57.475029 24.780083
v 1.280851 -55.515121 33.277191
v 1.457768 -57.448521 13.221171
v 1.190968 -47.904305 45.161510
v 1.352932 -59.180481 24.370102
v 1.159061 -43.164600 49.901207
v 1.457530 -59.180481 12.804819
v 1.531812 -54.559883 5.772659
v 1.570766 -47.904297 3.166847
v 1.554062 -55.515118 3.068397
v -6.981795 0.104846 62.716286
v -6.376110 0.114177 65.552383
v -49.019146 0.301866 38.588474
v -31.339375 0.246632 54.385323
v -54.418785 0.328150 35.688114
v -11.264831 0.092894 53.710205
v -28.075123 0.244003 58.849327
v -15.987730 0.172336 62.716290
v -64.009102 0.334926 22.379465
v -25.247452 0.241727 62.716297
v -49.777992 0.339707 45.161560
v -58.907127 0.338372 30.901529
v -8.548146 0.104721 60.290958
v -44.862011 0.326908 50.077522
v -64.009117 0.269735 9.050166
v -61.098061 0.315104 22.786762
v -39.914387 0.314025 55.025127
v -58.907127 0.349995 33.277248
v -58.907131 0.324140 27.991610
v -57.928410 0.293519 23.230242
v -58.907154 0.202960 3.214740
v -49.778023 0.134963 3.300418
v -64.009117 0.240962 3.166858
v -0.821682 0.021063 55.025097
v 1.212534 0.005820 55.025097
v 1.117444 0.058017 65.552376
vt 0.4025 0.1419
vt 0.2968 0.1427
vt 0.2968 0.0390
vt 0.2781 0.0063
vt 0.2592 0.0389
vt 0.4079 0.0194
vt 0.4078 0.0390
vt 0.1172 0.0219
vt 0.1171 0.0031
vt 0.2317 0.0031
vt 0.2779 0.1427
vt 0.2592 0.1427
vt 0.5891 0.7185
vt 0.5885 0.7859
vt 0.5079 0.7859
vt 0.5830 0.7184
vt 0.5883 0.8271
vt 0.5088 0.8271
vt 0.5220 0.8002
vt 0.5883 0.8132
vt 0.5079 0.7177
vt 0.4816 0.8003
vt 0.4960 0.7178
vt 0.3602 0.5920
vt 0.4424 0.5920
vt 0.4281 0.6217
vt 0.3602 0.6083
vt 0.4424 0.6949
vt 0.4424 0.6357
vt 0.4727 0.6229
vt 0.4561 0.6948
vt 0.4313 0.8649
vt 0.4313 0.8589
vt 0.4657 0.8457
vt 0.4571 0.8651
vt 0.3587 0.8101
vt 0.4300 0.8101
vt 0.4172 0.8448
vt 0.3587 0.8294
vt 0.5013 0.8219
vt 0.4873 0.8076
vt 0.4521 0.5991
vt 0.4664 0.6132
vt 0.4432 0.8185
vt 0.4572 0.8327
vt 0.8791 0.5177
vt 0.9336 0.5177
vt 0.9313 0.5347
vt 0.8790 0.5225
vt 0.9313 0.5656
vt 0.9479 0.5305
vt 0.9393 0.5656
vt 0.9364 0.4630
vt 0.9364 0.4812
vt 0.9203 0.4812
vt 0.9263 0.4629
vt 0.9492 0.4630
vt 0.9492 0.4812
vt 0.9411 0.4630
vt 0.9126 0.5026
vt 0.9075 0.4812
vt 0.9241 0.4968
vt 0.9203 0.4629
vt 0.9123 0.4628
vt 0.8749 0.4630
vt 0.8749 0.4815
vt 0.8589 0.4815
vt 0.8649 0.4629
vt 0.8877 0.4630
vt 0.8877 0.4815
vt 0.8797 0.4630
vt 0.8511 0.5029
vt 0.8460 0.4815
vt 0.8626 0.4970
vt 0.8589 0.4628
vt 0.8509 0.4628
vt 0.8524 0.2926
vt 0.8524 0.2319
vt 0.8803 0.2390
vt 0.8674 0.2926
vt 0.9223 0.2154
vt 0.9297 0.2390
vt 0.8639 0.2154
vt 0.8803 0.2926
vt 0.9054 0.2924
vt 0.3611 0.6939
vt 0.3602 0.6217
vt 0.4360 0.6949
vt 0.4281 0.6948
vt 0.5883 0.8002
vt 0.5884 0.7942
vt 0.4172 0.8649
vt 0.4302 0.8649
vt 0.8790 0.5347
vt 0.4816 0.7179
vt 0.2317 0.8866
vt 0.2317 0.9978
vt 0.1171 0.9978
vt 0.1181 0.8899
vt 0.1227 0.8856
vt 0.2317 0.0408
vt 0.1172 0.0408
vt 0.8953 0.5654
vt 0.8794 0.5654
vt 0.8792 0.5510
vt 0.2968 0.0013
vt 0.4079 0.0013
vt 0.8460 0.4628
vt 0.3587 0.8448
vt 0.3588 0.8651
vt 0.1182 0.8856
vt 0.9075 0.4628
vt 0.4657 0.8651
vt 0.4080 0.1419
vt 0.3611 0.6945
vt 0.9479 0.5655
vt 0.2317 0.1445
vt 0.1185 0.1440
vt 0.4727 0.6948
vt 0.9297 0.2922
vn 0.0000 -0.0000 1.0000
vn -0.0000 -1.0000 -0.0000
vn -1.0000 -0.0000 -0.0000
vn 0.6140 -0.7480 0.2521
vn -0.0012 0.0000 1.0000
vn -0.7511 -0.2490 -0.6115
vn 0.0000 -1.0000 -0.0005
vn -0.2492 0.6117 0.7509
vn -1.0000 0.0004 -0.0000
vn 0.0000 -0.5329 0.8462
vn -0.0000 -0.7071 0.7071
vn 0.0608 -0.4505 0.8907
vn -0.0077 -0.9867 -0.1621
vn -0.0000 -1.0000 0.0001
vn -0.8652 -0.5015 0.0000
vn -0.5419 -0.7929 -0.2786
vn -0.4350 -0.9004 -0.0015
vn -0.4353 -0.9003 -0.0000
vn -0.6577 -0.7533 0.0000
vn -0.4803 -0.8683 -0.1241
vn -0.6794 0.0373 0.7328
vn -0.6819 0.0000 0.7315
vn -0.4849 -0.0000 0.8746
vn -0.4168 0.1213 0.9009
vn 0.0311 -0.8127 0.5819
vn 0.0000 -0.8119 0.5838
vn -0.0000 -0.9129 0.4082
vn 0.1273 -0.9419 0.3109
vn -0.9079 0.0140 0.4190
vn -0.9070 0.0000 0.4211
vn -0.6608 0.5156 0.5454
vn 0.0000 -0.0001 1.0000
vn -0.3389 -0.9407 -0.0126
vn -0.3397 -0.9405 0.0000
vn -1.0000 0.0000 -0.0001
vn -0.4863 -0.6609 -0.5716
vn -0.9959 0.0901 0.0006
vn 0.0776 0.9915 0.1047
vn -0.0000 -0.3447 0.9387
vn 0.5745 -0.4975 0.6500
vn 0.0000 -0.3446 0.9387
vn -0.0015 -1.0000 0.0000
vn 0.0003 -1.0000 0.0000
vn 0.9930 -0.0318 -0.1134
vn -0.5745 0.1477 0.8051
vn -0.7893 0.0072 0.6139
vn -0.7888 0.0000 0.6146
vn -0.7071 -0.0000 0.7071
vn -0.7790 0.0819 0.6217
vn 0.0000 -0.9531 0.3026
vn -0.0000 -0.9337 0.3581
vn -0.7889 -0.0000 0.6146
vn -0.7071 0.0017 0.7071
vn -0.7071 0.0002 0.7071
vn 0.0062 0.8387 0.5445
vn -0.9104 -0.2393 -0.3375
vn -0.6699 0.7073 0.2260
vn -0.6577 0.7533 -0.0037
vn 0.2140 -0.7071 0.6740
vn 0.2218 -0.9239 0.3119
vn 0.2691 0.3684 0.8899
vn -0.1028 -0.2331 -0.9670
vn -0.4556 -0.8500 -0.2643
vn -0.5008 -0.4992 -0.7071
vn 0.7071 -0.4984 0.5016
vn 0.9723 -0.0547 0.2272
vn 0.0014 0.9723 -0.2337
vn 0.2185 -0.5507 0.8056
vn 0.7716 -0.2528 0.5837
vn -0.0379 -0.9328 0.3584
vn -0.6577 0.2399 -0.7140
vn 0.9687 -0.1678 0.1830
vn -0.4994 0.7071 0.5006
vn -0.6818 -0.0000 0.7315
vn -0.6818 0.6973 0.2211
vn -0.7896 0.1528 0.5942
vn -0.4689 -0.0124 0.8831
vn -0.3082 0.9170 0.2534
vn 0.9337 -0.0024 0.3581
s 1
f 99/1/1 92/2/1 3/3/1
f 1/4/2 3/3/1 2/5/3
f 71/6/4 62/7/5 3/3/1
f 32/8/6 35/9/7 1/10/2
f 89/11/8 86/12/9 2/5/3
f 75/13/2 58/14/2 4/15/2 31/16/2
f 48/17/10 6/18/10 7/19/11 56/20/12
f 44/21/13 4/15/14 8/22/15 45/23/16
f 36/24/17 9/25/18 10/26/19 39/27/20
f 93/28/21 12/29/22 11/30/23 80/31/24
f 52/32/25 14/33/26 13/34/27 49/35/28
f 81/36/29 15/37/30 5/38/1 88/39/31
f 6/40/10 8/41/15 4/15/2
f 4/15/2 7/19/11 6/40/10
f 9/42/18 11/43/23 12/29/22
f 12/29/22 10/26/19 9/42/18
f 15/44/30 13/45/27 14/33/26
f 14/33/26 5/38/32 15/44/30
f 34/46/33 17/47/34 16/48/35 40/49/36
f 84/50/37 16/48/3 17/51/34 91/52/38
f 70/53/2 18/54/2 19/55/2 53/56/2
f 55/57/39 20/58/39 18/54/2 66/59/40
f 20/60/41 21/61/3 19/55/2
f 19/55/2 18/62/2 20/60/41
f 63/63/42 19/55/43 21/61/3 47/64/44
f 72/65/2 22/66/2 23/67/2 54/68/2
f 65/69/39 24/70/39 22/66/2 68/71/45
f 24/72/41 25/73/3 23/67/2
f 23/67/2 22/74/2 24/72/41
f 57/75/42 23/67/2 25/73/3 61/76/44
f 79/77/46 26/78/47 27/79/48 82/80/49
f 28/81/50 29/82/51 27/79/48
f 27/79/48 26/83/52 28/81/50
f 85/84/53 27/79/54 29/82/51 83/85/55
f 38/86/56 43/87/3 10/26/19
f 87/88/57 94/89/58 10/26/19
f 67/90/59 7/19/11 4/15/2 59/91/60
f 60/92/1 5/38/1 14/33/26 64/93/61
f 16/48/35 42/94/62 40/49/36
f 10/26/19 43/87/63 39/27/20
f 8/22/15 37/95/15 45/23/16
f 69/96/2 1/97/2 35/98/2 33/99/2 51/100/2
f 4/15/2 44/21/2 31/16/2
f 1/10/2 2/101/3 30/102/64 32/8/6
f 90/103/3 98/104/3 41/105/3
f 3/3/1 1/106/2 69/107/65 71/6/4
f 22/66/2 72/65/66 68/71/45
f 18/54/2 70/53/66 66/59/40
f 25/73/3 73/108/67 61/76/44
f 77/109/1 5/38/1 60/92/1 101/110/1
f 4/15/2 58/14/2 59/91/60
f 7/19/11 67/90/68 56/20/12
f 23/67/2 57/75/2 54/68/2
f 19/55/2 63/63/2 53/56/2
f 14/33/26 52/32/69 64/93/61
f 33/99/2 74/111/2 51/100/2
f 21/61/3 50/112/67 47/64/44
f 13/34/27 46/113/70 49/35/28
f 3/3/1 62/7/1 100/114/1 99/1/1
f 10/26/19 94/89/58 96/115/71 38/86/56
f 17/51/34 95/116/72 91/52/38
f 2/5/3 3/3/1 92/2/73 89/11/8
f 10/26/19 12/29/74 93/28/75 87/88/57
f 30/102/3 2/101/3 86/117/3 97/118/3
f 42/94/3 16/48/3 84/50/3 90/103/3 41/105/3
f 27/79/48 85/84/76 82/80/49
f 11/30/23 78/119/77 80/31/24
f 5/38/1 77/109/78 88/39/31
f 29/82/51 76/120/79 83/85/55
