# Blender v2.78 (sub 0) OBJ File: 'dividedShipPart.blend'
# www.blender.org
o shipPart6_sci_fi_space_cargo_container_3.002
v 39.152847 -47.904289 -39.603252
v 49.016434 -38.040707 -39.603256
v 39.152832 -38.040707 -49.466824
v 27.691061 -55.515114 -22.436829
v 57.735374 -21.539658 -27.718941
v 27.691023 -21.531652 -59.535206
v 27.365675 -47.081585 -33.030159
v 22.476963 -55.515114 -27.718920
v 32.579773 -47.081585 -27.748064
v 47.779099 -31.467627 -27.744528
v 57.735374 -26.733541 -22.433298
v 47.779091 -26.273741 -33.030167
v 27.354122 -31.467623 -48.732090
v 22.465399 -26.733536 -59.535202
v 32.579746 -26.265739 -48.732090
v 19.457973 -2.438650 -58.620361
v 16.778603 -1.869133 -65.552391
v 16.001875 -10.201166 -58.620361
v 13.785788 -8.591092 -65.552391
v 9.687276 -15.886858 -58.620358
v 8.317652 -13.514619 -65.552376
v 1.606020 -18.512615 -58.620354
v 1.319688 -15.788396 -65.552376
v 64.009094 -0.723605 -7.661164
v 56.726578 -1.678648 -9.610243
v 64.009094 -16.589622 -7.661167
v 64.009094 -5.621595 -7.661165
v 56.726578 -17.544662 -9.610246
v 56.726578 -4.666552 -9.610244
v 57.735401 -26.733545 3.972763
v 57.735401 -21.539661 4.039843
v 29.849432 -51.791756 3.384755
v 49.016464 -38.040714 3.744073
v 27.691088 -55.515118 3.316205
v 64.009109 -16.589624 4.163253
v 64.009109 -0.723607 4.368158
v 49.016464 -0.862027 4.224224
v -0.679214 -55.515118 3.047223
v -0.033325 -47.904297 3.151638
v 64.009109 -11.448030 4.229654
v 32.579803 -47.081589 3.471474
v 64.009109 -5.621597 4.304903
v 39.152885 -47.904297 3.523174
v 60.883900 -5.211751 4.280565
v 53.031544 -28.970171 3.899282
v 44.184364 -42.872810 3.635850
v 56.726593 -17.544664 4.081873
v 60.482037 -17.052170 4.123838
v 56.726593 -1.678651 4.286778
v 60.420918 -1.194169 4.328061
v 47.779129 -31.467630 3.817229
v 57.735401 -24.496971 4.001650
v 56.726593 -4.666553 4.248190
v -0.596064 -0.156402 -65.552376
v -0.554337 -7.083882 -65.552376
v -0.510017 -14.442444 -65.552376
v -0.591068 -47.904289 -39.603214
v -0.541491 -28.856766 -54.690002
v -0.671423 -51.657284 -30.148462
v -0.700100 -55.515114 -25.381350
v -0.590651 -31.467623 -48.732063
v -0.562366 -18.284708 -58.620350
v -0.515656 -24.385752 -59.535183
v -0.732166 -55.515114 -22.436800
v -0.545586 -17.524164 -60.581787
v -0.536193 -10.096391 -65.552376
v -0.567177 -42.995747 -44.511753
v -0.501513 -26.733536 -59.535183
v -0.532846 -21.531652 -59.535183
v -0.674644 -55.515114 -27.718897
v -0.543056 -38.040707 -49.466793
v -0.574762 -3.693043 -65.552376
v -0.503064 -15.596817 -65.552376
v -0.663910 0.228750 -59.535179
v -0.667599 -47.081585 -33.030128
v -0.521201 -12.585617 -65.552376
v -1.044857 -47.904297 2.067219
v -1.056561 -47.904297 3.141936
v -1.009655 -55.515118 3.044090
v 27.691023 0.406363 -59.535202
v 56.726578 0.778569 -9.610243
v 58.221958 0.769615 -9.210022
v 49.016464 1.004065 2.169481
v 19.457973 0.496060 -58.620361
v 47.779091 0.559785 -33.030163
v 17.562576 0.450458 -63.524105
v 53.260517 0.545833 -30.106071
v 49.016434 0.462939 -39.603249
v 16.778603 0.431596 -65.552391
v 32.579746 0.500090 -48.732086
v 44.085239 0.445682 -44.534428
v 64.009094 0.734961 -7.661164
v 29.897587 0.448669 -54.659130
v -0.101509 0.669146 -59.535179
v 57.735374 0.534447 -27.718937
v 39.152832 0.428429 -49.466816
v 57.735401 0.938291 3.455754
v 49.016464 1.031001 4.248672
v 64.009109 0.891061 4.389011
v 57.735401 0.949619 4.330287
v 1.653738 0.574602 -65.552376
v -0.745708 0.805664 -49.466785
v -0.666595 0.674490 -59.535179
v -0.777039 0.805958 -49.466785
v -0.600595 0.595918 -65.552376
vt 0.4054 0.4433
vt 0.2976 0.4422
vt 0.2976 0.3382
vt 0.2597 0.3384
vt 0.2786 0.3057
vt 0.4050 0.3193
vt 0.4049 0.3382
vt 0.1194 0.7647
vt 0.1191 0.7840
vt 0.0025 0.7840
vt 0.2787 0.4424
vt 0.2597 0.4425
vt 0.5821 0.7184
vt 0.5829 0.6495
vt 0.6597 0.6495
vt 0.5830 0.7184
vt 0.6698 0.1066
vt 0.6705 0.0458
vt 0.7564 0.0458
vt 0.6721 0.1065
vt 0.5831 0.6083
vt 0.6589 0.6083
vt 0.6456 0.6353
vt 0.5831 0.6229
vt 0.6597 0.7192
vt 0.6861 0.6352
vt 0.6714 0.7194
vt 0.6711 0.0019
vt 0.7565 0.0019
vt 0.7421 0.0317
vt 0.6709 0.0176
vt 0.7564 0.1054
vt 0.7869 0.0330
vt 0.7701 0.1055
vt 0.6732 0.4232
vt 0.6111 0.4232
vt 0.5979 0.3913
vt 0.6733 0.4089
vt 0.5649 0.4968
vt 0.5649 0.4244
vt 0.5970 0.4372
vt 0.5825 0.4967
vt 0.6663 0.6135
vt 0.6804 0.6278
vt 0.7662 0.0090
vt 0.7805 0.0231
vt 0.5724 0.4130
vt 0.5865 0.3989
vt 0.7617 0.9639
vt 0.7541 0.9617
vt 0.7610 0.9428
vt 0.7655 0.9502
vt 0.7332 0.9522
vt 0.7429 0.9346
vt 0.7140 0.9396
vt 0.7263 0.9237
vt 0.6969 0.9242
vt 0.7115 0.9103
vt 0.7084 0.9065
vt 0.6975 0.9159
vt 0.8926 0.0322
vt 0.9302 0.0322
vt 0.9249 0.0520
vt 0.8925 0.0422
vt 0.9249 0.0560
vt 0.9453 0.0494
vt 0.9411 0.0560
vt 0.8971 0.1340
vt 0.9290 0.1340
vt 0.9290 0.1636
vt 0.8969 0.1479
vt 0.8973 0.1141
vt 0.9343 0.1141
vt 0.8972 0.1244
vt 0.9494 0.1314
vt 0.9494 0.1662
vt 0.8967 0.1636
vt 0.9343 0.1835
vt 0.8968 0.1721
vt 0.6733 0.4372
vt 0.6732 0.4295
vt 0.8060 0.8628
vt 0.7591 0.8677
vt 0.7672 0.8495
vt 0.8059 0.8536
vt 0.8059 0.8454
vt 0.7820 0.8362
vt 0.8059 0.8387
vt 0.5830 0.6353
vt 0.5830 0.6416
vt 0.6707 0.0317
vt 0.6707 0.0378
vt 0.8968 0.1835
vt 0.0025 0.8914
vt 0.1181 0.8899
vt 0.1152 0.8927
vt 0.1155 0.6407
vt 0.1211 0.6406
vt 0.1210 0.6457
vt 0.8924 0.0520
vt 0.0025 0.7463
vt 0.1197 0.7463
vt 0.6861 0.7196
vt 0.1181 0.8927
vt 0.5970 0.4966
vt 0.6736 0.4961
vt 0.6721 0.4973
vt 0.6932 0.9197
vt 0.6734 0.3913
vt 0.2976 0.3005
vt 0.4050 0.3005
vt 0.8058 0.8337
vt 0.8009 0.8301
vt 0.8058 0.8306
vt 0.7591 0.8739
vt 0.8061 0.8723
vt 0.8000 0.8743
vt 0.4055 0.4433
vt 0.8061 0.8744
vt 0.6736 0.4973
vt 0.8924 0.0564
vt 0.7670 0.9445
vt 0.7869 0.1055
vt 0.0025 0.6422
vt 0.9453 0.0561
vn -0.0000 0.0000 -1.0000
vn 1.0000 -0.0000 0.0000
vn 0.0000 -1.0000 0.0000
vn -0.6136 -0.7485 -0.2515
vn 0.0008 0.0000 -1.0000
vn 0.7432 -0.2568 0.6178
vn -0.0000 -1.0000 -0.0038
vn -0.0000 -1.0000 0.0002
vn 0.2489 0.6115 -0.7511
vn 1.0000 0.0005 0.0000
vn -0.0000 -0.5329 -0.8462
vn 0.0000 -0.7071 -0.7071
vn -0.0610 -0.4506 -0.8906
vn 0.0070 -0.9879 0.1550
vn 0.0000 -1.0000 -0.0001
vn 0.8652 -0.5015 -0.0000
vn 0.5388 -0.7982 0.2693
vn 0.4336 -0.9011 0.0021
vn 0.4340 -0.9009 -0.0000
vn 0.6552 -0.7554 -0.0000
vn 0.4768 -0.8701 0.1250
vn 0.9920 0.1264 -0.0043
vn 0.4835 0.0000 -0.8753
vn 0.2031 0.4694 -0.8593
vn -0.0352 -0.7864 -0.6167
vn 0.0000 -0.7854 -0.6190
vn 0.0000 -0.9041 -0.4274
vn -0.1274 -0.9310 -0.3420
vn 0.8984 0.0106 -0.4390
vn 0.8976 0.0000 -0.4408
vn 0.6561 0.4975 -0.5676
vn 0.6552 -0.7555 0.0000
vn -0.0000 -0.9040 -0.4274
vn 0.9327 0.0000 -0.3605
vn 0.9097 -0.1934 -0.3675
vn 0.6468 -0.4042 -0.6468
vn 0.9440 0.1833 -0.2745
vn 0.7524 -0.5467 -0.3675
vn 0.5774 -0.5773 -0.5773
vn 0.4650 -0.8054 -0.3675
vn 0.5774 -0.5773 -0.5774
vn 0.0972 -0.9249 -0.3675
vn 0.2169 -0.6903 -0.6903
vn -0.4265 -0.8983 -0.1060
vn -0.2916 -0.8648 -0.4087
vn 0.1668 -0.9859 0.0098
vn 0.1681 -0.9858 0.0000
vn 1.0000 0.0000 -0.0001
vn 0.3933 -0.6936 0.6035
vn 0.9992 0.0397 -0.0002
vn 1.0000 0.0001 0.0000
vn 0.1680 -0.9858 -0.0000
vn 0.0066 0.9878 -0.1555
vn 0.3499 -0.0000 -0.9368
vn 1.0000 -0.0001 0.0000
vn 0.9956 0.0006 0.0933
vn 0.3500 -0.0000 -0.9368
vn -0.0829 0.0995 0.9916
vn -0.2588 0.3514 -0.8997
vn -0.7903 -0.0109 -0.6127
vn -0.8125 -0.0802 -0.5773
vn -0.8135 0.0704 -0.5774
vn -0.8125 -0.0802 -0.5774
vn -0.2135 -0.7071 -0.6741
vn -0.2212 -0.9239 -0.3123
vn 0.6552 -0.7187 0.2327
vn 0.9097 -0.3387 0.2402
vn -0.9695 0.1730 -0.1736
vn 0.0998 -0.1181 0.9880
vn 0.4947 -0.5053 0.7070
vn 0.4514 -0.8523 0.2641
vn -0.7458 -0.2462 -0.6190
vn -0.0975 -0.9276 -0.3605
vn -0.2184 -0.5510 -0.8054
vn 0.0267 -0.9196 -0.3919
vn -0.7071 -0.4988 -0.5012
vn -0.8096 0.0569 -0.5842
vn 0.2168 -0.6903 -0.6903
vn -0.3945 -0.6065 -0.6903
vn 0.2465 0.7218 -0.6468
vn -0.7498 -0.2499 -0.6127
vn -0.2313 0.7415 -0.6299
vn -0.7522 0.2426 -0.6127
vn 0.4992 0.7071 -0.5008
vn 0.7189 -0.0994 -0.6879
vn 0.4660 -0.0136 -0.8847
vn -0.9511 -0.0752 -0.2996
vn 0.3222 0.9018 -0.2881
s 1
f 102/1/1 96/2/1 3/3/1
f 3/3/1 2/4/2 1/5/3
f 67/6/4 71/7/5 3/3/1
f 46/8/6 43/9/7 1/10/8
f 91/11/9 88/12/10 2/4/2
f 79/13/3 64/14/3 4/15/3 38/16/3
f 100/17/2 31/18/2 5/19/2 97/20/2
f 75/21/11 7/22/11 8/23/12 59/24/13
f 34/25/14 4/15/15 9/26/16 32/27/17
f 51/28/18 10/29/19 11/30/20 45/31/21
f 95/32/22 5/19/2 12/33/23 87/34/24
f 68/35/25 14/36/26 13/37/27 58/38/28
f 90/39/29 15/40/30 6/41/1 93/42/31
f 7/43/11 9/44/16 4/15/3
f 4/15/3 8/23/12 7/43/11
f 10/45/19 12/46/23 5/19/2
f 5/19/2 11/30/32 10/45/19
f 15/47/30 13/48/33 14/36/26
f 14/36/26 6/41/1 15/47/30
f 84/49/34 16/50/35 17/51/36 86/52/37
f 16/50/35 18/53/38 19/54/39
f 19/54/39 17/51/36 16/50/35
f 18/53/38 20/55/40 21/56/41
f 21/56/41 19/54/39 18/53/38
f 20/55/40 22/57/42 23/58/43
f 23/58/43 21/56/41 20/55/40
f 73/59/44 23/58/43 22/57/42 65/60/45
f 49/61/46 25/62/47 24/63/48 50/64/49
f 92/65/50 24/63/51 25/66/52 82/67/53
f 35/68/2 26/69/2 27/70/2 40/71/2
f 47/72/46 28/73/47 26/69/48 48/74/49
f 28/75/52 29/76/54 27/70/55
f 27/70/55 26/69/51 28/75/52
f 42/77/56 27/70/48 29/78/57 44/79/58
f 69/80/1 6/41/1 14/36/26 63/81/59
f 72/82/60 17/83/36 19/84/41 55/85/61
f 66/86/62 19/84/41 21/87/41 76/88/63
f 70/89/64 8/23/12 4/15/3 60/90/65
f 30/91/66 11/30/20 5/19/2 52/92/67
f 29/78/57 53/93/68 44/79/58
f 27/70/2 42/77/2 40/71/2
f 57/94/3 1/10/3 43/9/3 39/95/3 77/96/3
f 83/97/2 98/98/2 37/99/2
f 24/63/48 36/100/69 50/64/49
f 26/69/48 35/68/69 48/74/49
f 4/15/3 34/25/3 38/16/3
f 1/10/8 2/101/2 33/102/70 46/8/6
f 9/26/16 41/103/16 32/27/17
f 5/19/2 31/18/2 52/92/67
f 11/30/20 30/91/71 45/31/21
f 39/95/3 78/104/3 77/96/3
f 80/105/1 6/41/1 69/80/1 74/106/1 94/107/1
f 14/36/26 68/35/72 63/81/59
f 22/57/42 62/108/73 65/60/45
f 4/15/3 64/14/3 60/90/65
f 8/23/12 70/89/74 59/24/13
f 13/37/27 61/109/75 58/38/28
f 3/3/1 1/110/3 57/111/76 67/6/4
f 21/87/41 56/112/77 76/88/63
f 21/87/41 23/113/78 73/114/79 56/112/77
f 19/84/41 66/86/62 55/85/61
f 89/115/80 17/83/36 72/82/60 54/116/81 101/117/82
f 3/3/1 71/7/1 104/118/1 102/1/1
f 54/116/81 105/119/83 101/117/82
f 5/19/2 95/32/2 97/20/2
f 74/106/1 103/120/1 94/107/1
f 36/100/2 24/63/2 92/65/2 99/121/2
f 2/4/2 3/3/1 96/2/84 91/11/9
f 17/51/36 89/122/85 86/52/37
f 12/33/23 85/123/86 87/34/24
f 33/102/2 2/101/2 88/124/2 83/97/2 37/99/2
f 25/66/52 81/125/87 82/67/53
f 6/41/1 80/105/88 93/42/31
