# Blender v2.78 (sub 0) OBJ File: 'dividedShipPart.blend'
# www.blender.org
o shipPart1_sci_fi_space_cargo_container_3.004
v 39.152924 48.805092 45.161488
v 39.152943 38.941513 55.025074
v 49.016495 38.941513 45.161484
v 27.691149 22.432453 65.552338
v 57.735428 22.440462 33.277149
v 27.365747 47.338310 38.588413
v 22.477024 59.180508 33.277187
v 32.579834 47.338314 33.306309
v 27.691113 59.180508 27.995083
v 32.579857 27.166540 53.710155
v 27.354233 32.368431 53.710155
v 22.465523 27.634335 65.552345
v 47.779156 32.368435 33.302753
v 57.735424 27.634342 27.991510
v 47.779156 27.174547 38.588394
v 64.009125 10.244416 14.722836
v 56.726604 11.199460 16.671930
v 57.735401 25.110090 4.642312
v 32.579807 47.338318 4.690880
v 57.735401 1.574678 4.338360
v 30.074999 53.405842 4.745492
v 64.009109 4.318217 4.433272
v 39.152885 48.805099 4.772145
v 53.567810 29.615988 4.660993
v 57.735401 22.440468 4.607838
v 64.009109 10.244418 4.509809
v 47.779129 32.368439 4.641656
v 60.945370 10.646204 4.485950
v 43.854641 44.103348 4.756000
v 57.735401 27.634346 4.674912
v 49.016464 38.941521 4.738280
v 10.749624 59.180511 4.636845
v 56.726593 11.199462 4.453096
v 27.691090 59.180511 4.797468
v 1.181206 27.634335 65.552383
v 1.485198 49.626194 37.562336
v 1.470628 47.338310 38.588455
v 1.583930 59.180508 29.088045
v 1.302559 38.941513 55.025105
v 1.546041 59.180508 33.277229
v 1.146730 12.724153 65.552376
v 1.217159 2.006140 55.025097
v 1.776959 48.805099 5.092378
v 1.299250 32.368431 53.710194
v 1.593814 59.180508 27.995125
v 1.673896 59.180508 19.140520
v 1.190903 28.023195 64.579666
v 1.172327 23.793890 65.552376
v 1.169178 22.432453 65.552376
v 1.356106 43.656635 50.309986
v 1.414570 48.805092 45.161526
v 1.805835 59.180511 4.552047
v 1.783058 48.805099 4.417836
v 47.779156 1.241639 38.588390
v 53.084671 1.215641 35.758125
v 27.691149 1.700728 65.552338
v 49.016495 1.396134 45.161476
v 63.064095 0.823610 14.975762
v 56.726604 0.817276 16.671928
v 32.579857 1.471806 53.710152
v 57.735428 1.192850 33.277145
v 29.782192 1.602811 60.487091
v 64.009125 0.824555 14.722835
v 39.152943 1.546614 55.025066
v 44.215279 1.469379 49.962711
v 64.009117 0.757463 11.700203
v 49.016464 0.487861 4.241657
v 64.009109 0.595097 4.385189
v 57.735401 0.550224 4.325130
v 9.784943 1.576457 65.552361
v 1.215488 1.283320 55.025097
v 1.120816 1.516326 65.552376
vt 0.1234 0.3994
vt 0.2317 0.3984
vt 0.2317 0.5004
vt 0.4080 0.1453
vt 0.5106 0.1461
vt 0.5106 0.2472
vt 0.4080 0.1473
vt 0.5484 0.2471
vt 0.5295 0.2797
vt 0.4084 0.2652
vt 0.4082 0.2472
vt 0.1225 0.5184
vt 0.1225 0.5004
vt 0.5300 0.1458
vt 0.5484 0.1455
vt 0.6697 0.1083
vt 0.6690 0.1647
vt 0.5915 0.1647
vt 0.7988 0.2687
vt 0.7987 0.3387
vt 0.7637 0.3255
vt 0.7920 0.2687
vt 0.6867 0.3396
vt 0.7494 0.3396
vt 0.7637 0.3742
vt 0.6865 0.3565
vt 0.3550 0.9715
vt 0.2855 0.9715
vt 0.2983 0.9369
vt 0.3546 0.9517
vt 0.2843 0.8652
vt 0.2843 0.9228
vt 0.2498 0.9360
vt 0.2814 0.8653
vt 0.6689 0.2085
vt 0.5914 0.2085
vt 0.6058 0.1787
vt 0.6689 0.1912
vt 0.5915 0.1072
vt 0.5610 0.1775
vt 0.5772 0.1073
vt 0.7907 0.3515
vt 0.7764 0.3656
vt 0.2724 0.9632
vt 0.2584 0.9491
vt 0.5817 0.2014
vt 0.5674 0.1874
vt 0.8922 0.1015
vt 0.8592 0.1015
vt 0.8644 0.0817
vt 0.8921 0.0900
vt 0.8644 0.0562
vt 0.8440 0.0842
vt 0.8618 0.0562
vt 0.7523 0.2690
vt 0.7637 0.2689
vt 0.2983 0.8652
vt 0.2947 0.8652
vt 0.6688 0.1787
vt 0.6689 0.1719
vt 0.7494 0.2690
vt 0.6862 0.2938
vt 0.7255 0.2692
vt 0.2317 0.5381
vt 0.1224 0.5381
vt 0.8920 0.0817
vt 0.8726 0.0560
vt 0.8924 0.0556
vt 0.8922 0.0656
vt 0.6864 0.3742
vt 0.5106 0.2849
vt 0.4086 0.2849
vt 0.6860 0.2696
vt 0.2498 0.8655
vt 0.1216 0.3994
vt 0.3544 0.9369
vt 0.3246 0.8651
vt 0.3547 0.8885
vt 0.3549 0.8651
vt 0.6698 0.1055
vt 0.8440 0.0562
vt 0.2317 0.6396
vt 0.1211 0.6421
vt 0.5610 0.1074
vn 0.0000 1.0000 0.0000
vn 0.0000 -0.0000 1.0000
vn 1.0000 -0.0000 0.0000
vn -0.6095 0.7535 0.2465
vn -0.0019 0.0000 1.0000
vn 0.7488 0.2512 -0.6133
vn 0.0000 1.0000 0.0006
vn 0.0000 1.0000 0.0003
vn 0.2453 -0.6085 0.7547
vn 1.0000 -0.0025 0.0000
vn -0.0124 0.4420 0.8969
vn 0.0000 0.4439 0.8961
vn -0.0000 0.6200 0.7846
vn -0.1274 0.4628 0.8772
vn 0.0034 0.9917 -0.1289
vn 0.8002 0.5997 -0.0000
vn 0.9121 0.4099 -0.0000
vn 0.8531 0.0890 -0.5142
vn 0.9078 -0.0133 0.4192
vn 0.9070 -0.0000 0.4211
vn 0.6570 -0.5105 0.5547
vn -0.0325 0.8127 0.5817
vn -0.0000 0.8119 0.5838
vn 0.0000 0.9129 0.4082
vn -0.1262 0.9427 0.3089
vn 0.4336 0.9011 -0.0020
vn 0.4340 0.9009 0.0000
vn 0.6552 0.7554 -0.0000
vn 0.4788 0.8691 -0.1240
vn 0.9917 -0.1285 0.0045
vn 0.4835 -0.0000 0.8753
vn 0.2003 -0.4679 0.8608
vn 0.0001 -0.0000 1.0000
vn 0.6552 0.7555 -0.0000
vn 0.1811 0.0221 -0.9832
vn 0.1681 0.9858 0.0000
vn 1.0000 -0.0000 0.0001
vn 0.1058 0.0747 -0.9916
vn 0.9991 -0.0413 0.0002
vn 1.0000 -0.0001 -0.0000
vn 0.1680 0.9858 0.0000
vn 0.0020 -0.9876 0.1567
vn -0.7514 0.6099 -0.2517
vn -0.2428 0.6200 0.7461
vn -0.2691 -0.3684 0.8899
vn 0.6552 0.7187 -0.2327
vn 0.9097 0.3387 -0.2402
vn -0.8002 0.5997 -0.0072
vn 0.2539 0.5997 -0.7589
vn -0.2599 0.8943 -0.3642
vn -0.6338 0.7676 0.0955
vn 0.4992 0.5008 -0.7071
vn 0.1117 0.1165 -0.9869
vn 0.4540 0.8511 -0.2636
vn 0.9281 0.3713 0.0289
vn -0.7071 0.5027 0.4974
vn -0.4424 0.8943 0.0666
vn 0.0379 0.9328 0.3585
vn -0.2425 0.4265 0.8714
vn -0.7716 0.2528 0.5838
vn 0.4964 -0.7071 0.5036
vn -0.9510 0.0767 0.2995
vn 0.3039 -0.9154 0.2639
vn 0.4660 0.0137 0.8847
s 1
f 43/1/1 51/2/1 1/3/1
f 71/4/2 64/5/2 2/6/2 42/7/2
f 3/8/3 1/9/1 2/6/2
f 50/10/4 39/11/5 2/6/2
f 29/12/6 23/13/7 1/3/8
f 65/14/9 57/15/10 3/8/3
f 20/16/3 25/17/3 5/18/3
f 37/19/11 6/20/12 7/21/13 36/22/14
f 34/23/15 9/24/16 8/25/17 21/26/18
f 60/27/19 10/28/20 4/29/2 62/30/21
f 35/31/22 12/32/23 11/33/24 47/34/25
f 27/35/26 13/36/27 14/37/28 24/38/29
f 61/39/30 5/18/3 15/40/31 55/41/32
f 6/42/12 8/43/17 9/24/16
f 9/24/16 7/21/13 6/42/12
f 10/44/20 11/45/24 12/32/23
f 12/32/23 4/29/33 10/44/20
f 13/46/27 15/47/31 5/18/3
f 5/18/3 14/37/34 13/46/27
f 33/48/35 17/49/36 16/50/37 28/51/38
f 63/52/39 16/50/40 17/53/41 58/54/42
f 38/55/43 40/56/44 7/21/13
f 49/57/2 4/29/2 12/32/23 48/58/45
f 30/59/46 14/37/28 5/18/3 18/60/47
f 45/61/48 9/24/16 34/23/49 32/62/50 46/63/51
f 1/3/8 3/64/3 31/65/52 29/12/6
f 16/50/37 26/66/53 28/51/38
f 14/37/28 30/59/54 24/38/29
f 66/67/3 68/68/3 22/69/3
f 8/25/17 19/70/55 21/26/18
f 5/18/3 25/17/3 18/60/47
f 2/6/2 1/71/1 51/72/56 50/10/4
f 32/62/50 52/73/57 46/63/51
f 11/33/24 44/74/58 47/34/25
f 1/3/1 23/13/1 53/75/1 43/1/1
f 56/76/2 4/29/2 49/57/2 41/77/2 70/78/2
f 2/6/2 39/11/2 42/7/2
f 7/21/13 9/24/16 45/61/48 38/55/43
f 7/21/13 40/56/59 36/22/14
f 12/32/23 35/31/60 48/58/45
f 41/77/2 72/79/2 70/78/2
f 3/8/3 2/6/2 64/5/61 65/14/9
f 26/66/3 16/50/3 63/52/3 66/67/3 22/69/3
f 5/18/3 61/39/3 69/80/3 20/16/3
f 17/53/41 59/81/62 58/54/42
f 31/65/3 3/64/3 57/82/3 67/83/3
f 4/29/2 56/76/63 62/30/21
f 15/40/31 54/84/64 55/41/32
