# Blender v2.78 (sub 0) OBJ File: 'dividedShipPart.blend'
# www.blender.org
o shipPart7_sci_fi_space_cargo_container_3.007
v 39.152847 48.805107 -39.603237
v 49.016434 38.941528 -39.603241
v 39.152832 38.941528 -49.466808
v 27.691061 59.180515 -22.436810
v 22.476963 59.180515 -27.718901
v 1.347123 59.180515 -27.718861
v 57.735374 22.440472 -27.718933
v 27.691023 22.432474 -59.535198
v 32.579773 47.338322 -27.748049
v 27.365675 47.338322 -33.030144
v 47.779091 27.174559 -33.030159
v 47.779099 32.368443 -27.744516
v 57.735374 27.634350 -22.433290
v 27.354122 32.368446 -48.732082
v 22.465399 27.634356 -59.535194
v 32.579746 27.166557 -48.732082
v 1.606020 22.132456 -58.620346
v 1.319688 19.408237 -65.552376
v 9.687276 19.506693 -58.620354
v 8.317657 17.134457 -65.552376
v 16.001879 13.821002 -58.620358
v 13.785792 12.210925 -65.552391
v 19.457973 6.058485 -58.620361
v 16.778603 5.488966 -65.552391
v 64.009094 10.244420 -7.661162
v 56.726578 11.199465 -9.610241
v 57.735401 25.110090 4.642312
v 32.579807 47.338318 4.690880
v 57.735401 1.574678 4.338360
v 30.074999 53.405842 4.745492
v 64.009109 4.318217 4.433272
v 39.152885 48.805099 4.772145
v 53.567810 29.615988 4.660993
v 57.735401 22.440468 4.607838
v 64.009109 10.244418 4.509809
v 47.779129 32.368439 4.641656
v 60.945370 10.646204 4.485950
v 43.854641 44.103348 4.756000
v 1.142086 48.805099 4.411759
v 57.735401 27.634346 4.674912
v 49.016464 38.941521 4.738280
v 10.749624 59.180511 4.636845
v 56.726593 11.199462 4.453096
v 27.691090 59.180511 4.797468
v -0.975134 32.368446 -48.732056
v -0.641090 7.319850 -65.552376
v -1.295636 52.778828 -30.590021
v -1.236298 47.338322 -33.030098
v -0.804273 21.879122 -58.620342
v -0.828976 27.634356 -59.535175
v -1.006729 38.941528 -49.466778
v -0.735689 19.870461 -63.807209
v -0.705918 18.082872 -65.552376
v -1.088646 43.785019 -44.623291
v -0.815186 25.344717 -59.535175
v -1.422983 59.180515 -22.436762
v -0.712614 19.194633 -65.552376
v -0.679707 13.731312 -65.552376
v -0.777222 0.836346 -49.466785
v -1.417635 59.180515 -22.927866
v -1.395720 59.180515 -24.940237
v -1.173550 48.805107 -39.603199
v -0.694501 16.187243 -65.552376
v -0.661404 10.692464 -65.552376
v -0.619051 3.660402 -65.552383
v -0.896481 29.820887 -54.545547
v -0.797644 22.432474 -59.535175
v -1.620621 48.805099 1.449986
v -1.652584 48.805099 4.385262
v -1.716530 59.180511 4.518651
v 27.691023 0.406363 -59.535202
v 56.726578 0.778569 -9.610243
v 58.221958 0.769615 -9.210022
v 49.016464 1.004065 2.169481
v 19.457973 0.496060 -58.620361
v 47.779091 0.559785 -33.030163
v 17.562576 0.450458 -63.524105
v 53.260517 0.545833 -30.106071
v 49.016434 0.462939 -39.603249
v 16.778603 0.431596 -65.552391
v 32.579746 0.500090 -48.732086
v 44.085239 0.445682 -44.534428
v 64.009094 0.734961 -7.661164
v 29.897587 0.448669 -54.659130
v -0.101509 0.669146 -59.535179
v 57.735374 0.534447 -27.718937
v 39.152832 0.428429 -49.466816
v 57.735401 0.938291 3.455754
v 49.016464 1.031001 4.248672
v 64.009109 0.891061 4.389011
v 57.735401 0.949619 4.330287
v 1.653738 0.574602 -65.552376
v -0.745708 0.805664 -49.466785
v -0.666595 0.674490 -59.535179
v -0.777039 0.805958 -49.466785
v -0.600595 0.595918 -65.552376
vt 0.1155 0.6407
vt 0.0025 0.6422
vt 0.0025 0.5381
vt 0.2976 0.5464
vt 0.2786 0.5792
vt 0.2597 0.5465
vt 0.1225 0.5184
vt 0.1224 0.5381
vt 0.4064 0.5649
vt 0.4066 0.5841
vt 0.2976 0.5841
vt 0.2787 0.4424
vt 0.2976 0.4422
vt 0.6130 0.2609
vt 0.6130 0.3396
vt 0.5988 0.3255
vt 0.6117 0.2609
vt 0.6736 0.4973
vt 0.6740 0.5561
vt 0.5970 0.5561
vt 0.6721 0.4973
vt 0.6864 0.3742
vt 0.5987 0.3742
vt 0.6865 0.3565
vt 0.5988 0.2684
vt 0.5637 0.3387
vt 0.7869 0.1055
vt 0.7869 0.1775
vt 0.7564 0.1647
vt 0.7701 0.1055
vt 0.6688 0.1787
vt 0.7421 0.1787
vt 0.7565 0.2085
vt 0.6689 0.1912
vt 0.6745 0.6021
vt 0.5979 0.6021
vt 0.6111 0.5702
vt 0.6743 0.5849
vt 0.5970 0.4966
vt 0.5649 0.5689
vt 0.5825 0.4967
vt 0.6063 0.2609
vt 0.5842 0.2543
vt 0.5860 0.3656
vt 0.5718 0.3515
vt 0.7805 0.1874
vt 0.7662 0.2014
vt 0.5865 0.5944
vt 0.5724 0.5803
vt 0.8508 0.9637
vt 0.8446 0.9658
vt 0.8394 0.9464
vt 0.8461 0.9493
vt 0.8220 0.9700
vt 0.8198 0.9500
vt 0.7990 0.9708
vt 0.7999 0.9506
vt 0.7762 0.9680
vt 0.7802 0.9482
vt 0.7670 0.9445
vt 0.7655 0.9502
vt 0.8061 0.8744
vt 0.8061 0.8826
vt 0.7591 0.8876
vt 0.8000 0.8743
vt 0.8924 0.0564
vt 0.9249 0.0560
vt 0.9249 0.0817
vt 0.8922 0.0656
vt 0.9453 0.0561
vt 0.9453 0.0842
vt 0.9411 0.0560
vt 0.8920 0.0817
vt 0.9302 0.1015
vt 0.8921 0.0900
vt 0.6862 0.2938
vt 0.6867 0.3396
vt 0.6741 0.5702
vt 0.6740 0.5640
vt 0.8064 0.9246
vt 0.8009 0.9252
vt 0.7820 0.9191
vt 0.8064 0.9216
vt 0.8063 0.9165
vt 0.7672 0.9058
vt 0.8063 0.9099
vt 0.8062 0.9017
vt 0.8062 0.8925
vt 0.6690 0.1647
vt 0.6689 0.1719
vt 0.1135 0.3902
vt 0.1215 0.3901
vt 0.1215 0.3976
vt 0.8922 0.1015
vt 0.6689 0.2085
vt 0.0025 0.5004
vt 0.1225 0.5004
vt 0.7564 0.1054
vt 0.6697 0.1083
vt 0.6721 0.1065
vt 0.0025 0.3914
vt 0.6859 0.2601
vt 0.4054 0.4433
vt 0.4055 0.4433
vt 0.4055 0.4434
vt 0.8446 0.9445
vt 0.4061 0.5464
vt 0.5637 0.2614
vt 0.5798 0.2612
vt 0.6698 0.1066
vt 0.5649 0.4968
vt 0.7591 0.8739
vt 0.2597 0.4425
vt 0.7617 0.9639
vt 0.1211 0.6406
vn 1.0000 -0.0000 -0.0000
vn 0.0000 -0.0000 -1.0000
vn 0.0000 1.0000 0.0000
vn 0.2512 0.7488 0.6133
vn 1.0000 -0.0000 -0.0006
vn 1.0000 -0.0000 -0.0003
vn -0.6081 0.2448 -0.7552
vn -0.0028 1.0000 -0.0000
vn 0.7511 -0.6115 -0.2489
vn 0.0000 -0.0005 -1.0000
vn 0.9129 0.4080 0.0112
vn 0.9121 0.4099 0.0000
vn 0.6674 0.5387 0.5142
vn -0.0000 0.4439 -0.8961
vn 0.4827 -0.0053 -0.8758
vn 0.4835 -0.0000 -0.8754
vn 0.6006 -0.4694 -0.6472
vn 0.6519 0.7570 0.0443
vn 0.6552 0.7554 0.0000
vn 0.4340 0.9009 -0.0000
vn 0.3719 0.9199 0.1240
vn -0.0098 0.9048 -0.4258
vn 0.0000 0.9041 -0.4274
vn 0.0000 0.7854 -0.6190
vn -0.1262 0.8815 -0.4550
vn 0.0037 -0.1277 -0.9918
vn 0.8976 -0.0000 -0.4407
vn 0.8594 -0.4975 -0.1182
vn -0.0980 0.9910 0.0914
vn 0.1388 0.0199 -0.9901
vn 0.9121 0.4100 0.0000
vn 0.4835 -0.0000 -0.8753
vn 0.6552 0.7555 0.0000
vn -0.0000 0.9040 -0.4274
vn 0.8976 -0.0000 -0.4408
vn -0.0975 0.9276 -0.3605
vn 0.0972 0.9249 -0.3675
vn 0.2169 0.6903 -0.6903
vn -0.2551 0.9341 -0.2495
vn 0.4650 0.8054 -0.3675
vn 0.5774 0.5773 -0.5774
vn 0.7524 0.5467 -0.3675
vn 0.5774 0.5773 -0.5773
vn 0.9097 0.1934 -0.3675
vn 0.6468 0.4042 -0.6468
vn 0.8932 -0.3821 -0.2371
vn 0.8832 -0.1833 -0.4317
vn -0.2450 -0.7514 -0.6127
vn -0.7261 -0.1171 -0.6775
vn 0.2313 -0.7415 -0.6299
vn 0.0818 -0.9964 -0.0231
vn 0.3499 -0.0000 -0.9368
vn 1.0000 -0.0001 0.0000
vn 0.0720 -0.9878 -0.1380
vn 0.9956 0.0006 0.0933
vn 1.0000 -0.0000 -0.0001
vn 0.3500 -0.0000 -0.9368
vn -0.0829 0.0995 0.9916
vn 0.2599 0.8943 0.3642
vn 0.7594 0.5997 0.2525
vn -0.2453 0.7461 -0.6190
vn -0.2588 0.3514 -0.8997
vn -0.7954 0.1342 -0.5910
vn 0.2168 0.6903 -0.6903
vn -0.8089 -0.0666 -0.5842
vn -0.8134 0.0705 -0.5774
vn -0.8125 -0.0802 -0.5774
vn -0.7903 0.0013 -0.6127
vn 0.9097 -0.3387 0.2402
vn -0.9695 0.1730 -0.1736
vn 0.4276 0.9040 -0.0047
vn 0.5008 0.4992 0.7071
vn 0.3043 0.2628 0.9156
vn 0.6552 0.2309 0.7193
vn -0.1608 0.7187 -0.6765
vn -0.7071 0.4960 -0.5040
vn -0.2489 0.8712 -0.4231
vn 0.0362 0.3975 -0.9169
vn 0.0042 0.4437 -0.8962
vn 0.9151 0.0295 -0.4022
vn 0.7222 -0.2451 -0.6468
vn 0.5008 -0.7071 -0.4992
vn 0.3326 -0.8733 -0.3560
vn 0.9327 0.0000 -0.3605
vn 0.1035 -0.9653 -0.2399
s 1
f 74/1/1 79/2/1 2/3/1
f 3/4/2 1/5/3 2/6/1
f 38/7/4 41/8/5 2/3/6
f 54/9/7 62/10/8 1/11/3
f 82/12/9 87/13/10 3/4/2
f 56/14/3 4/15/3 5/16/3 60/17/3
f 94/18/2 67/19/2 8/20/2 85/21/2
f 28/22/11 9/23/12 4/15/3 30/24/13
f 6/25/3 5/16/3 10/26/14
f 76/27/15 11/28/16 7/29/1 78/30/17
f 40/31/18 13/32/19 12/33/20 33/34/21
f 45/35/22 14/36/23 15/37/24 66/38/25
f 71/39/26 8/20/2 16/40/27 84/41/28
f 61/42/29 6/25/3 47/43/30
f 9/44/31 10/45/14 5/16/3
f 5/16/3 4/15/3 9/44/31
f 11/46/32 12/47/20 13/32/33
f 13/32/33 7/29/1 11/46/32
f 14/48/34 16/49/35 8/20/2
f 8/20/2 15/37/24 14/48/34
f 49/50/36 17/51/37 18/52/38 52/53/39
f 17/51/37 19/54/40 20/55/41
f 20/55/41 18/52/38 17/51/37
f 19/54/40 21/56/42 22/57/43
f 22/57/43 20/55/41 19/54/40
f 21/56/42 23/58/44 24/59/45
f 24/59/45 22/57/43 21/56/42
f 80/60/46 24/59/45 23/58/44 77/61/47
f 96/62/48 65/63/49 24/64/45 92/65/50
f 90/66/1 83/67/1 25/68/1 31/69/1
f 72/70/51 26/71/52 25/68/53 73/72/54
f 35/73/55 25/68/56 26/74/57 37/75/58
f 42/76/59 44/77/60 4/15/3
f 50/78/61 15/37/24 8/20/2 55/79/62
f 57/80/63 18/81/64 20/82/41 53/83/65
f 63/84/66 20/82/41 22/85/41 58/86/67
f 64/87/66 22/85/41 24/64/45 46/88/68
f 34/89/1 7/29/1 13/32/19 27/90/69
f 68/91/3 69/92/3 39/93/3
f 26/74/57 43/94/70 37/75/58
f 12/33/20 36/95/71 33/34/21
f 2/3/6 1/96/3 32/97/72 38/7/4
f 25/68/1 35/73/1 31/69/1
f 4/15/3 44/77/73 30/24/13
f 86/98/1 7/29/1 34/89/1 29/99/1 88/100/1
f 13/32/19 40/31/74 27/90/69
f 32/97/3 1/96/3 62/101/3 68/91/3 39/93/3
f 5/16/3 6/25/3 61/42/3 60/17/3
f 22/85/41 64/87/66 58/86/67
f 4/15/3 56/14/3 70/102/3 42/76/59
f 93/103/2 95/104/2 59/105/2
f 8/20/2 67/19/2 55/79/62
f 20/82/41 63/84/66 53/83/65
f 18/52/38 57/106/75 52/53/39
f 1/11/3 3/4/2 51/107/76 54/9/7
f 15/37/24 50/78/77 66/38/25
f 10/26/14 48/108/78 47/109/79 6/25/3
f 24/64/45 65/63/49 46/88/68
f 29/99/1 91/110/1 88/100/1
f 51/107/2 3/4/2 87/13/2 93/103/2 59/105/2
f 16/40/27 81/111/80 84/41/28
f 24/64/45 80/112/81 92/65/50
f 3/4/2 2/6/1 79/113/82 82/12/9
f 7/29/1 86/98/83 78/30/17
f 23/58/44 75/114/84 77/61/47
f 2/3/1 41/8/1 89/115/1 74/1/1
f 25/68/53 83/67/85 73/72/54
f 8/20/2 71/39/2 85/21/2
