# Blender v2.78 (sub 0) OBJ File: 'dividedShipPart.blend'
# www.blender.org
o shipPart4_sci_fi_space_cargo_container_3.001
v -39.914482 -47.904289 -39.603176
v -49.778053 -38.040707 -39.603172
v -39.914497 -38.040707 -49.466763
v -28.452669 -55.515114 -22.436771
v -58.907181 -26.733541 -22.433197
v -58.907181 -21.539658 -27.718840
v -28.452707 -21.531652 -59.535160
v -28.127304 -47.081585 -33.030102
v -23.238585 -55.515114 -27.718876
v -33.341389 -47.081585 -27.747999
v -49.019203 -31.467627 -27.744444
v -49.019211 -26.273741 -33.030083
v -28.115791 -31.467623 -48.732037
v -23.227081 -26.733536 -59.535164
v -33.341415 -26.265739 -48.732033
v -64.009125 -11.089679 -3.598361
v -57.928425 -12.669719 -4.449152
v -20.964436 1.809920 -58.620331
v -18.225222 1.809921 -65.552368
v -6.844564 -17.624420 -58.620346
v -5.998106 -15.019265 -65.552376
v -14.203303 -13.375856 -58.620346
v -12.370409 -11.340215 -65.552368
v -19.197784 -6.501527 -58.620338
v -16.695387 -5.387387 -65.552361
v -49.778023 -38.040714 2.807390
v -44.844921 -42.973816 2.790444
v -49.778023 0.933132 3.310726
v -57.928421 -12.669721 3.057772
v -39.914444 -47.904297 2.773521
v -49.019173 -31.467630 2.899474
v -33.341358 -47.081589 2.846466
v -58.907154 -0.016135 3.211910
v -54.452450 -28.866333 2.881551
v -59.627502 -12.228222 3.047363
v -64.009117 -5.075622 3.098197
v -64.009117 -11.089681 3.020526
v -58.907154 -26.733545 2.866861
v -28.452642 -55.515118 2.783900
v -30.667000 -51.695126 2.812238
v -0.596064 -0.156402 -65.552376
v -0.554337 -7.083882 -65.552376
v -0.510017 -14.442444 -65.552376
v -0.591068 -47.904289 -39.603214
v -0.541491 -28.856766 -54.690002
v -0.671423 -51.657284 -30.148462
v -0.700100 -55.515114 -25.381350
v -0.590651 -31.467623 -48.732063
v -0.562366 -18.284708 -58.620350
v -0.515656 -24.385752 -59.535183
v -0.732166 -55.515114 -22.436800
v -0.545586 -17.524164 -60.581787
v -0.536193 -10.096391 -65.552376
v -0.567177 -42.995747 -44.511753
v -0.501513 -26.733536 -59.535183
v -0.532846 -21.531652 -59.535183
v -0.674644 -55.515114 -27.718897
v -0.543056 -38.040707 -49.466793
v -0.574762 -3.693043 -65.552376
v -0.503064 -15.596817 -65.552376
v -0.663910 0.228750 -59.535179
v -0.777222 0.836346 -49.466785
v -0.667599 -47.081585 -33.030128
v -0.521201 -12.585617 -65.552376
v -1.044857 -47.904297 2.067219
v -1.056561 -47.904297 3.141936
v -1.009655 -55.515118 3.044090
v -60.883980 1.712840 -4.035619
v -54.008308 2.595205 -30.350225
v -57.928429 1.642562 -4.449150
v -20.372963 2.807097 -59.580753
v -58.907181 2.543190 -25.580107
v -45.160896 2.905933 -44.220337
v -28.452707 3.043976 -59.535156
v -49.778053 2.851908 -39.603165
v -64.009132 1.787153 -3.598359
v -58.907181 2.631417 -27.718836
v -17.975958 2.982609 -65.552368
v -1.809403 1.841307 -49.466785
v -49.019211 2.558325 -33.030079
v -33.341415 2.742783 -48.732029
v -58.907181 2.413370 -22.433193
v -20.758478 2.778870 -58.620331
v -30.411190 2.923315 -55.207279
v -39.914497 2.967328 -49.466755
v -58.907154 1.410009 1.889199
v -58.907154 1.354715 3.229614
v -49.778023 1.081519 3.312643
v -64.009117 1.507395 3.183214
v -9.461660 2.731007 -65.552376
v -0.675922 2.223160 -59.535179
v -0.783092 1.810978 -49.466785
v -0.611879 2.469492 -65.552383
vt 0.1181 0.8927
vt 0.1171 0.9978
vt 0.0025 0.9978
vt 0.1152 0.8927
vt 0.1186 0.1466
vt 0.0025 0.1513
vt 0.0025 0.0408
vt 0.1186 0.1462
vt 0.5491 0.3382
vt 0.5113 0.3382
vt 0.5303 0.3056
vt 0.4050 0.3193
vt 0.4050 0.3005
vt 0.5113 0.3005
vt 0.1172 0.0219
vt 0.1172 0.0408
vt 0.5314 0.4489
vt 0.5113 0.4491
vt 0.2775 0.7011
vt 0.2775 0.6357
vt 0.2918 0.6217
vt 0.2833 0.7008
vt 0.6736 0.4961
vt 0.6733 0.4372
vt 0.7488 0.4372
vt 0.5830 0.6353
vt 0.5220 0.6353
vt 0.5088 0.6083
vt 0.5831 0.6229
vt 0.4816 0.7179
vt 0.4816 0.6352
vt 0.5079 0.6495
vt 0.4960 0.7178
vt 0.3602 0.6217
vt 0.2774 0.5920
vt 0.3602 0.6083
vt 0.2471 0.7009
vt 0.2471 0.6229
vt 0.2624 0.7010
vt 0.6734 0.3913
vt 0.7478 0.3913
vt 0.7346 0.4232
vt 0.6733 0.4089
vt 0.7488 0.5037
vt 0.7808 0.4244
vt 0.7616 0.5034
vt 0.4873 0.6278
vt 0.5013 0.6135
vt 0.2535 0.6132
vt 0.2678 0.5991
vt 0.7592 0.3989
vt 0.7734 0.4130
vt 0.8794 0.5688
vt 0.8611 0.5695
vt 0.8611 0.5347
vt 0.8792 0.5510
vt 0.8790 0.5347
vt 0.8588 0.5177
vt 0.8790 0.5225
vt 0.8445 0.5691
vt 0.8445 0.5305
vt 0.8525 0.5693
vt 0.9033 0.9066
vt 0.9055 0.9043
vt 0.9210 0.9172
vt 0.9169 0.9174
vt 0.6932 0.9197
vt 0.6824 0.9064
vt 0.6989 0.8949
vt 0.6975 0.9159
vt 0.6708 0.8866
vt 0.6889 0.8778
vt 0.9447 0.8780
vt 0.9344 0.8985
vt 0.9171 0.8881
vt 0.9261 0.8703
vt 0.8061 0.8723
vt 0.8060 0.8628
vt 0.8496 0.8582
vt 0.6732 0.4232
vt 0.6732 0.4295
vt 0.8300 0.8801
vt 0.8537 0.8776
vt 0.8531 0.8808
vt 0.8059 0.8454
vt 0.8379 0.8421
vt 0.8059 0.8536
vt 0.8058 0.8337
vt 0.8207 0.8321
vt 0.8059 0.8387
vt 0.8058 0.8306
vt 0.5829 0.6495
vt 0.5830 0.6416
vt 0.5079 0.7177
vt 0.2918 0.7005
vt 0.3611 0.6939
vt 0.3575 0.6978
vt 0.3602 0.5920
vt 0.8791 0.5177
vt 0.0025 0.0031
vt 0.1171 0.0031
vt 0.4049 0.3382
vt 0.7084 0.9065
vt 0.4083 0.4461
vt 0.4055 0.4460
vt 0.4055 0.4434
vt 0.5821 0.7184
vt 0.5831 0.6083
vt 0.0025 0.8914
vt 0.8061 0.8794
vt 0.3611 0.6976
vt 0.7808 0.5029
vt 0.6737 0.5015
vt 0.5491 0.4488
vt 0.9191 0.9191
vn -0.0000 -1.0000 -0.0000
vn -1.0000 0.0000 0.0000
vn 0.0000 -0.0000 -1.0000
vn 0.6136 -0.2515 -0.7485
vn -0.0008 -1.0000 0.0000
vn -0.2490 -0.7511 0.6115
vn -1.0000 -0.0000 0.0005
vn -0.7536 0.6094 -0.2464
vn 0.0000 0.0019 -1.0000
vn 0.0371 -0.7045 -0.7088
vn -0.0000 -0.7071 -0.7071
vn -0.0000 -0.5329 -0.8462
vn 0.0610 -0.6085 -0.7912
vn -0.8652 -0.5015 0.0000
vn -0.0000 -1.0000 -0.0001
vn -0.9574 -0.0761 0.2786
vn -0.6544 -0.7549 0.0441
vn -0.4353 -0.9003 -0.0000
vn -0.3752 -0.9186 0.1241
vn -0.4841 0.0049 -0.8750
vn -0.4849 -0.0000 -0.8746
vn -0.6004 0.4689 -0.6478
vn 0.0103 -0.9048 -0.4256
vn -0.0000 -0.9041 -0.4274
vn -0.0000 -0.7854 -0.6190
vn 0.1274 -0.8825 -0.4527
vn -0.0041 0.1334 -0.9911
vn -0.8976 0.0000 -0.4408
vn -0.8630 0.4931 -0.1103
vn 0.0000 -0.9040 -0.4274
vn -0.9991 -0.0002 0.0427
vn -1.0000 0.0000 0.0001
vn -0.3397 -0.9405 -0.0000
vn 0.1030 -0.8140 0.5716
vn -0.1545 0.9876 -0.0259
vn -0.0735 0.9938 -0.0835
vn -0.8668 0.4797 -0.1362
vn -0.7071 0.0000 -0.7071
vn -0.9300 0.0000 -0.3675
vn -0.8450 0.3617 -0.3940
vn -0.0975 -0.9276 -0.3605
vn -0.2874 -0.8845 -0.3675
vn -0.5490 -0.5910 -0.5910
vn 0.1009 -0.9497 -0.2965
vn -0.6223 -0.6911 -0.3675
vn -0.5774 -0.5773 -0.5773
vn -0.8496 -0.3783 -0.3675
vn -0.5773 -0.5774 -0.5774
vn 0.7498 0.2499 -0.6127
vn 0.7903 0.0109 -0.6127
vn 0.2453 -0.7461 -0.6190
vn 0.2588 -0.3514 -0.8997
vn -0.0342 0.7206 -0.6925
vn -0.4368 0.5561 -0.7071
vn 0.8135 -0.0704 -0.5774
vn 0.8125 0.0802 -0.5774
vn 0.8096 -0.0569 -0.5842
vn 0.6114 -0.3869 -0.6903
vn 0.2212 -0.9239 0.3123
vn -0.3519 -0.3929 0.8496
vn -0.9104 0.2393 0.3375
vn -0.9774 0.1036 -0.1845
vn -0.4304 -0.9026 -0.0035
vn -0.2388 -0.9668 -0.0915
vn -0.4992 -0.5008 0.7071
vn 0.7071 -0.5012 -0.4988
vn -0.3085 -0.7027 -0.6411
vn 0.6746 -0.7071 -0.2120
vn 0.2493 -0.8725 -0.4202
vn 0.3957 0.6200 -0.6775
vn -0.9104 0.4104 -0.0522
vn -0.9151 -0.0296 -0.4022
vn -0.5027 0.7071 -0.4973
vn -0.9124 0.1939 -0.3605
vn -0.3331 0.8722 -0.3582
vn -0.0912 0.9877 -0.1272
s 1
f 66/1/1 30/2/1 1/3/1 65/4/1
f 88/5/2 75/6/2 2/7/2 28/8/2
f 2/9/2 3/10/3 1/11/1
f 54/12/4 44/13/5 1/14/1
f 27/15/6 26/16/7 2/7/2
f 73/17/8 85/18/9 3/10/3
f 77/19/2 6/20/2 5/21/2 72/22/2
f 61/23/3 56/24/3 7/25/3
f 57/26/10 9/27/11 8/28/12 46/29/13
f 32/30/14 10/31/14 4/32/15 40/33/16
f 38/34/17 5/21/2 11/35/18 34/36/19
f 80/37/20 12/38/21 6/20/2 69/39/22
f 48/40/23 13/41/24 14/42/25 45/43/26
f 74/44/27 7/25/3 15/45/28 84/46/29
f 10/47/14 8/48/12 9/27/11
f 9/27/11 4/32/1 10/47/14
f 12/49/21 11/50/18 5/21/2
f 5/21/2 6/20/2 12/49/21
f 13/51/30 15/52/28 7/25/3
f 7/25/3 14/42/25 13/51/30
f 89/53/2 76/54/2 16/55/2 36/56/2
f 37/57/31 16/55/32 17/58/33 35/59/34
f 70/60/35 17/61/33 16/55/2 68/62/36
f 78/63/37 19/64/38 18/65/39 71/66/40
f 49/67/41 20/68/42 21/69/43 52/70/44
f 20/68/42 22/71/45 23/72/46
f 23/72/46 21/69/43 20/68/42
f 22/73/45 24/74/47 25/75/48
f 25/75/48 23/76/46 22/73/45
f 24/74/47 18/65/39 19/64/38
f 19/64/38 25/75/48 24/74/47
f 41/77/49 59/78/50 25/79/48
f 55/80/51 14/42/25 7/25/3 50/81/52
f 90/82/53 19/83/38 78/84/54
f 53/85/55 23/86/48 25/79/48 42/87/56
f 43/88/57 21/89/43 23/86/48 64/90/56
f 43/88/57 60/91/58 21/89/43
f 51/92/1 4/32/1 9/27/11 47/93/59
f 4/32/15 39/94/60 40/33/16
f 16/55/2 37/57/2 36/56/2
f 82/95/2 5/21/2 38/34/2 33/96/61 86/97/62
f 11/35/18 31/98/63 34/36/19
f 17/58/33 29/99/64 35/59/34
f 2/7/2 1/100/1 30/101/65 27/15/6
f 2/7/2 26/16/2 28/8/2
f 1/14/1 3/10/3 58/102/66 54/12/4
f 23/86/48 53/85/55 64/90/56
f 21/69/43 60/103/67 52/70/44
f 79/104/3 92/105/3 62/106/3
f 39/94/1 4/32/1 51/92/1 67/107/1
f 7/25/3 56/24/3 50/81/52
f 9/27/11 57/26/68 47/93/59
f 8/28/12 63/108/12 46/29/13
f 14/42/25 55/80/69 45/43/26
f 1/3/1 44/109/1 65/4/1
f 25/79/48 59/78/50 42/87/56
f 25/79/48 19/83/38 90/82/53 93/110/70 41/77/49
f 33/96/61 87/111/71 86/97/62
f 15/45/28 81/112/72 84/46/29
f 58/102/3 3/10/3 85/18/3 79/104/3 62/106/3
f 7/25/3 74/44/3 91/113/3 61/23/3
f 3/10/3 2/9/2 75/114/73 73/17/8
f 5/21/2 82/95/2 72/22/2
f 18/65/39 83/115/74 71/66/40
f 6/20/2 77/19/75 69/39/22
f 16/55/2 76/54/76 68/62/36
