# Blender v2.78 (sub 0) OBJ File: ''
# www.blender.org
mtllib texturedSkyscraper.mtl
o Cube
v 1.000000 -1.000000 -1.000000
v 1.000000 -1.000000 1.000000
v -1.000000 -1.000000 1.000000
v -1.000000 -1.000000 -1.000000
v 1.000000 1.000000 -0.999999
v 0.999999 1.000000 1.000001
v -1.000000 1.000000 1.000000
v -1.000000 1.000000 -1.000000
vt 0.0000 0.0000
vt 0.0000 0.0000
vt 0.0000 0.0000
vt 0.0000 0.0000
vt 0.0000 0.0000
vt 0.0000 0.0000
vt 0.0000 0.0000
vt 0.0000 0.0000
vt 0.9999 0.9999
vt 0.0001 0.0001
vt 0.9999 0.0001
vt 0.9999 0.9999
vt 0.0001 0.0001
vt 0.9999 0.0001
vt 0.9985 0.0015
vt 0.0015 0.9985
vt 0.0015 0.0015
vt 0.0015 0.0015
vt 0.9985 0.9985
vt 0.0015 0.9985
vt 0.0001 0.9999
vt 0.0001 0.9999
vt 0.9985 0.9985
vt 0.9985 0.0015
vn 0.0000 -1.0000 0.0000
vn 0.0000 1.0000 0.0000
vn 1.0000 -0.0000 0.0000
vn 0.0000 -0.0000 1.0000
vn -1.0000 -0.0000 -0.0000
vn 0.0000 0.0000 -1.0000
usemtl Skyscraper_Top
s off
f 2/1/1 4/2/1 1/3/1
f 8/4/2 6/5/2 5/6/2
f 2/1/1 3/7/1 4/2/1
f 8/4/2 7/8/2 6/5/2
usemtl Skyscraper_Side
f 5/9/3 2/10/3 1/11/3
f 6/12/4 3/13/4 2/14/4
f 3/15/5 8/16/5 4/17/5
f 1/18/6 8/19/6 5/20/6
f 5/9/3 6/21/3 2/10/3
f 6/12/4 7/22/4 3/13/4
f 3/15/5 7/23/5 8/16/5
f 1/18/6 4/24/6 8/19/6
